<svg width="1728" height="778" viewBox="0 0 1728 778" fill="none" xmlns="http://www.w3.org/2000/svg">
<rect width="1728" height="778" transform="matrix(-1 0 0 1 1728 0)" fill="#ecf0f1"/>
<mask id="mask0_19_615" style="mask-type:alpha" maskUnits="userSpaceOnUse" x="-942" y="-292" width="1692" height="1281">
<path d="M-96.9233 989C-108.31 989 -108.179 978.834 -108.179 978.834C-126.371 772.133 -132.392 564.52 -127.68 357.036C-123.754 180.181 -113.545 3.71564 -113.283 -173.271L-116.294 -176.268H-207.779L-210.79 -179.266V-208.199L-207.779 -211.196H-116.294L-113.283 -214.194V-289.002L-110.273 -292H-83.4425L-80.4323 -289.002V-214.194L-77.422 -211.196H14.0637L17.074 -208.199V-179.266L14.0637 -176.268H-77.422L-80.5631 -173.271C-80.3013 3.71564 -70.2236 180.181 -66.1663 357.036C-61.4545 564.52 -67.475 772.133 -85.6674 978.834C-85.6674 978.834 -85.6675 989 -96.9233 989Z" fill="#ecf0f1" fill-opacity="0.5"/>
<path d="M55.2913 -74.4815C34.3503 17.5305 13.5403 112.41 13.0168 207.028C12.3624 325.497 44.5591 428.196 101.231 531.677L101.623 532.459L292.448 938.041C295.458 944.427 292.971 951.987 286.689 955.375C280.537 958.764 272.684 956.678 268.889 950.683L33.8268 576.249C-3.60516 522.554 -29.3887 464.167 -42.6076 400.175C-75.3279 241.044 -24.1535 67.1857 29.6386 -81.9103C31.9944 -88.557 39.062 -92.2062 45.8679 -90.2513C52.6736 -88.2964 56.8618 -81.3889 55.2913 -74.4815Z" fill="#ecf0f1" fill-opacity="0.5"/>
<path d="M-437.999 -17.3976C-440.878 -23.6534 -438.653 -30.9518 -432.764 -34.4706C-426.874 -37.9895 -419.414 -36.5559 -415.226 -31.0821C-262.88 168.842 -233.694 362.51 -455.93 522.554C-501.214 555.266 -547.808 586.285 -594.664 616.651C-645.838 649.755 -697.405 682.076 -749.365 713.746C-806.298 748.544 -863.493 782.69 -920.95 816.575C-927.101 820.224 -935.085 818.4 -939.011 812.405C-942.807 806.54 -941.498 798.59 -935.739 794.289L-498.99 477.46C-441.402 435.755 -386.825 383.624 -366.8 313.376C-353.188 266.067 -357.245 217.064 -368.109 169.624C-382.898 105.893 -410.514 41.511 -438.13 -17.7885" fill="#ecf0f1" fill-opacity="0.5"/>
<path d="M-356.198 -52.3257C-358.423 -58.9724 -355.02 -66.0102 -348.607 -68.7471C-342.194 -71.3536 -334.865 -68.7471 -331.854 -62.4913C-295.993 9.4501 -261.833 86.3439 -242.07 164.28C-225.71 228.532 -219.297 295.13 -233.956 360.295C-252.41 442.271 -301.097 507.436 -363.789 561.913C-422.424 612.872 -481.582 663.309 -541.787 712.573C-591.26 753.105 -641.388 792.595 -692.039 831.563C-719 852.285 -746.093 872.877 -773.316 893.339C-778.944 897.509 -786.797 896.858 -791.377 891.514C-795.827 886.171 -795.435 878.351 -790.461 873.529L-406.195 499.225C-359.994 454.262 -316.541 403.173 -297.433 340.615C-281.596 288.614 -284.214 234.137 -293.114 181.093C-299.003 145.904 -307.641 110.846 -317.196 76.5693C-329.106 33.3002 -342.718 -9.70822 -356.46 -52.3257" fill="#ecf0f1" fill-opacity="0.5"/>
<path d="M-246.913 -74.4815C-248.483 -81.3889 -244.295 -88.2964 -237.489 -90.2513C-230.683 -92.2062 -223.616 -88.557 -221.129 -81.9103C-167.468 67.1857 -116.294 241.044 -149.014 400.175C-162.102 464.167 -188.016 522.554 -225.448 576.119L-460.51 950.553C-464.306 956.548 -472.028 958.633 -478.31 955.245C-484.462 951.856 -487.079 944.297 -484.069 937.911L-293.245 532.328L-292.852 531.546C-236.18 428.066 -203.984 325.367 -204.638 206.898C-205.162 112.279 -225.972 17.4001 -246.913 -74.6119" fill="#ecf0f1" fill-opacity="0.5"/>
<path d="M246.508 -17.3976C218.892 41.9019 191.277 106.154 176.487 170.015C165.624 217.455 161.567 266.328 175.178 313.767C195.203 384.015 249.911 436.146 307.499 477.851L744.249 794.68C750.007 798.85 751.447 806.801 747.521 812.796C743.594 818.791 735.61 820.615 729.459 816.966C672.002 783.081 614.807 748.804 557.874 714.137C505.914 682.337 454.216 650.146 403.173 617.042C356.317 586.676 309.724 555.527 264.57 522.945C42.2032 362.771 71.3897 169.103 223.735 -30.6912C227.792 -36.165 235.383 -37.5986 241.273 -34.0797C247.163 -30.5608 249.388 -23.2624 246.508 -17.0066" fill="#ecf0f1" fill-opacity="0.5"/>
<path d="M164.577 -52.3257C150.703 -9.57788 137.223 33.3002 125.312 76.5693C115.758 110.976 107.251 145.904 101.23 181.093C92.3306 234.137 89.713 288.614 105.55 340.615C124.658 403.173 168.111 454.262 214.312 499.225L598.578 873.529C603.551 878.351 603.944 886.171 599.494 891.514C594.913 896.858 587.06 897.509 581.432 893.339C554.209 872.877 527.117 852.285 500.155 831.563C449.505 792.595 399.377 753.105 349.904 712.573C289.699 663.309 230.541 613.002 171.906 561.913C109.214 507.436 60.6573 442.141 42.2031 360.295C27.5444 295 33.9576 228.532 50.3177 164.28C70.0807 86.2136 104.241 9.31976 140.102 -62.4913C143.243 -68.6167 150.573 -71.3537 156.986 -68.7471C163.399 -66.0102 166.802 -58.9724 164.577 -52.3257Z" fill="#ecf0f1" fill-opacity="0.5"/>
</mask>
<g mask="url(#mask0_19_615)">
<rect width="814" height="778" fill="white"/>
</g>
</svg>